#!OML:ASF F:\VICON\USERDATA\INSTALL\rory3\rory3.ASF
:FULLY-SPECIFIED
:DEGREES
424
root 0.761159 21.5865 8.24217 16.6021 -4.46595 -4.00126
lowerback -3.93011 0.225603 3.62671
upperback -4.92756 0.258603 1.36962
thorax -2.86535 0.0347751 -0.616767
lowerneck -15.2594 -2.61072 -5.24372
upperneck 29.3264 -3.10654 2.60039
head 12.3497 -1.64547 1.4187
rclavicle 9.06955e-015 -4.57205e-015
rhumerus -47.3387 7.86196 -88.1284
rradius 45.1737
rwrist 6.37354
rhand -21.5454 -45.7476
rfingers 7.12502
rthumb 4.8477 -75.6722
lclavicle 9.06955e-015 -4.57205e-015
lhumerus -50.9709 -21.0709 91.9023
lradius 46.2206
lwrist 2.559
lhand -30.721 -35.0898
lfingers 7.12502
lthumb -4.01371 -5.14787
rfemur -31.0762 2.72351 18.4403
rtibia 37.052
rfoot 13.2374 -9.80268
rtoes -6.57309
lfemur -29.7798 1.41761 -11.9893
ltibia 33.9279
lfoot 16.5411 4.63028
ltoes -12.8687
425
root 0.754831 21.5333 8.2398 17.3283 -4.82333 -3.91941
lowerback -4.48117 0.370597 3.37017
upperback -5.13301 0.436382 1.37541
thorax -2.76453 0.13143 -0.462167
lowerneck -15.2909 -2.58592 -5.07697
upperneck 29.1807 -3.02167 2.30857
head 12.2856 -1.62536 1.29094
rclavicle 3.8117e-014 5.96354e-015
rhumerus -47.018 7.65736 -88.0093
rradius 44.6018
rwrist 6.40868
rhand -21.1904 -46.3457
rfingers 7.12502
rthumb 5.19047 -76.2621
lclavicle 3.8117e-014 5.96354e-015
lhumerus -51.0695 -21.0602 91.9418
lradius 46.1067
lwrist 2.81894
lhand -30.0759 -34.57
lfingers 7.12502
lthumb -3.39073 -4.61725
rfemur -32.053 3.24382 17.9922
rtibia 36.9689
rfoot 12.4926 -9.93306
rtoes -5.86991
lfemur -30.4609 1.75129 -12.1296
ltibia 33.3878
lfoot 16.594 5.13921
ltoes -12.413
426
root 0.750561 21.4688 8.24538 17.7563 -5.07476 -3.68783
lowerback -4.91848 0.467078 3.07216
upperback -5.27313 0.555458 1.32031
thorax -2.66278 0.199739 -0.347066
lowerneck -15.1445 -2.57833 -4.92314
upperneck 29.0389 -2.96271 1.99697
head 12.1881 -1.62226 1.15621
rclavicle -2.35995e-014 -3.37934e-015
rhumerus -46.7948 7.44223 -87.8767
rradius 44.0422
rwrist 6.68732
rhand -20.6852 -46.2657
rfingers 7.12502
rthumb 5.67826 -76.1696
lclavicle -2.35995e-014 -3.37934e-015
lhumerus -51.2665 -20.9846 91.9897
lradius 45.9009
lwrist 2.71407
lhand -30.2762 -34.8177
lfingers 7.12502
lthumb -3.58418 -4.8681
rfemur -32.5647 3.55141 17.4621
rtibia 36.7412
rfoot 11.7134 -9.67382
rtoes -7.14022
lfemur -30.7874 1.83702 -12.3909
ltibia 32.8849
lfoot 16.4985 5.50383
ltoes -12.8368
427
root 0.744894 21.3837 8.23976 18.1148 -5.04107 -3.58652
lowerback -5.1668 0.473133 2.9609
upperback -5.41707 0.559944 1.32819
thorax -2.67457 0.204432 -0.275028
lowerneck -14.9156 -2.57598 -4.99307
upperneck 28.8499 -2.93834 1.96546
head 12.0656 -1.62322 1.16146
rclavicle -9.21864e-015 -1.09332e-014
rhumerus -46.5255 7.24831 -87.7625
rradius 43.4415
rwrist 6.63435
rhand -21.1496 -45.8937
rfingers 7.12502
rthumb 5.22987 -75.8092
lclavicle -9.21864e-015 -1.09332e-014
lhumerus -51.4768 -20.7807 91.9703
lradius 45.8339
lwrist 2.63935
lhand -30.6296 -34.9056
lfingers 7.12502
lthumb -3.92543 -4.96199
rfemur -32.9309 3.75081 17.1668
rtibia 36.4176
rfoot 10.9479 -9.49523
rtoes -8.62594
lfemur -31.1876 1.83693 -12.4352
ltibia 32.4726
lfoot 16.4482 5.45458
ltoes -14.5212
428
root 0.749811 21.3026 8.26537 18.6025 -4.82839 -3.5299
lowerback -5.94614 0.457196 3.15666
upperback -5.53206 0.500536 1.30558
thorax -2.36123 0.17044 -0.404479
lowerneck -14.6728 -2.58017 -5.11868
upperneck 28.6139 -2.94667 2.0582
head 11.9268 -1.62861 1.21798
rclavicle -6.64686e-016 -1.03368e-014
rhumerus -46.2428 7.04919 -87.6785
rradius 42.834
rwrist 6.53497
rhand -22.1286 -45.598
rfingers 7.12502
rthumb 4.28463 -75.5347
lclavicle -6.64686e-016 -1.03368e-014
lhumerus -51.695 -20.6322 91.9783
lradius 45.7569
lwrist 2.81333
lhand -30.514 -34.6792
lfingers 7.12502
lthumb -3.8138 -4.73356
rfemur -33.1958 3.40174 16.9899
rtibia 36.0041
rfoot 10.006 -8.93515
rtoes -10.0287
lfemur -31.6084 1.64858 -12.4213
ltibia 32.0543
lfoot 16.2196 5.42407
ltoes -15.3876
429
root 0.752379 21.2035 8.27769 19.1203 -4.75891 -3.71166
lowerback -6.50101 0.533507 3.51324
upperback -5.69338 0.5664 1.3249
thorax -2.21837 0.19258 -0.577391
lowerneck -14.5178 -2.61958 -5.1911
upperneck 28.3586 -2.99283 2.0769
head 11.7987 -1.65367 1.23107
rclavicle -3.17434e-015 -1.78906e-015
rhumerus -46.0255 6.85182 -87.6184
rradius 42.2756
rwrist 6.53656
rhand -23.1186 -44.8428
rfingers 7.12502
rthumb 3.3286 -74.7966
lclavicle -3.17434e-015 -1.78906e-015
lhumerus -51.904 -20.7475 92.1243
lradius 45.5316
lwrist 3.16067
lhand -30.677 -34.8018
lfingers 7.12502
lthumb -3.97124 -4.8591
rfemur -33.596 3.44076 16.9967
rtibia 35.5769
rfoot 9.71934 -8.67774
rtoes -9.49995
lfemur -32.1254 1.37248 -12.0488
ltibia 31.6853
lfoot 15.9694 5.66822
ltoes -15.2799
430
root 0.752288 21.0847 8.282 19.4425 -4.80623 -3.82783
lowerback -6.73852 0.614775 3.74452
upperback -5.79408 0.655263 1.31673
thorax -2.1876 0.228834 -0.709134
lowerneck -14.668 -2.64113 -5.23439
upperneck 28.3392 -3.00121 2.07425
head 11.8232 -1.6609 1.23472
rclavicle -5.51006e-015 -3.8763e-015
rhumerus -45.8349 6.67063 -87.6018
rradius 41.8615
rwrist 6.4447
rhand -23.3761 -44.5269
rfingers 7.12502
rthumb 3.07992 -74.4844
lclavicle -5.51006e-015 -3.8763e-015
lhumerus -52.0425 -20.8843 92.178
lradius 45.4415
lwrist 3.50691
lhand -30.8083 -35.0653
lfingers 7.12502
lthumb -4.09804 -5.12496
rfemur -33.8507 3.75846 16.8597
rtibia 35.1268
rfoot 9.44573 -8.60304
rtoes -9.86432
lfemur -32.428 1.15009 -11.7431
ltibia 31.3109
lfoot 15.6695 5.74251
ltoes -15.1722
431
root 0.751681 20.9563 8.28696 19.6431 -4.85935 -3.73341
lowerback -6.883 0.63829 3.76084
upperback -5.81327 0.678005 1.23906
thorax -2.12572 0.238923 -0.795986
lowerneck -15.0813 -2.60535 -5.15304
upperneck 28.5268 -2.93355 2.01685
head 11.9761 -1.6274 1.2061
rclavicle 6.62823e-015 1.91827e-014
rhumerus -45.4849 6.53775 -87.6656
rradius 41.6164
rwrist 6.39836
rhand -22.1351 -45.9372
rfingers 7.12502
rthumb 4.27834 -75.874
lclavicle 6.62823e-015 1.91827e-014
lhumerus -52.1005 -20.8387 92.0168
lradius 45.5831
lwrist 3.75156
lhand -30.6991 -35.0562
lfingers 7.12502
lthumb -3.99261 -5.11385
rfemur -33.9909 4.03531 16.5012
rtibia 34.6927
rfoot 9.1531 -8.53969
rtoes -11.0736
lfemur -32.6254 0.750819 -11.6043
ltibia 31.0158
lfoot 15.3284 5.7772
ltoes -14.426
432
root 0.751563 20.8199 8.28973 19.9013 -4.8554 -3.68193
lowerback -7.12397 0.649007 3.81581
upperback -5.81306 0.676435 1.1827
thorax -1.99136 0.237379 -0.882736
lowerneck -15.4385 -2.58921 -5.10406
upperneck 28.5322 -2.90463 2.02173
head 12.0493 -1.60576 1.20058
rclavicle 1.98163e-015 -1.32192e-014
rhumerus -45.0859 6.5268 -87.7619
rradius 41.4355
rwrist 6.32394
rhand -20.9798 -47.3545
rfingers 7.12502
rthumb 5.39385 -77.2659
lclavicle 1.98163e-015 -1.32192e-014
lhumerus -52.1393 -20.8114 91.9013
lradius 45.6673
lwrist 3.90148
lhand -31.0454 -35.2752
lfingers 7.12502
lthumb -4.32696 -5.33939
rfemur -34.1824 4.18276 16.2377
rtibia 34.2371
rfoot 8.93815 -8.38418
rtoes -12.5874
lfemur -32.9613 0.149854 -11.3144
ltibia 30.8181
lfoot 15.0678 5.92008
ltoes -13.6078
433
root 0.753969 20.6717 8.29474 20.1505 -4.76616 -3.91085
lowerback -7.50785 0.703589 4.20761
upperback -5.68431 0.703743 1.21956
thorax -1.64261 0.247247 -1.05822
lowerneck -15.7992 -2.59877 -5.15577
upperneck 28.3143 -2.89542 2.08122
head 12.0387 -1.59465 1.22899
rclavicle -6.41081e-015 8.94531e-016
rhumerus -44.5829 6.56326 -87.7838
rradius 41.1639
rwrist 6.0003
rhand -21.6529 -47.2034
rfingers 7.12502
rthumb 4.74398 -77.1303
lclavicle -6.41081e-015 8.94531e-016
lhumerus -51.9242 -20.9388 91.8564
lradius 45.5271
lwrist 3.85472
lhand -31.5538 -35.4272
lfingers 7.12502
lthumb -4.81792 -5.50198
rfemur -34.3092 4.27615 16.2991
rtibia 33.781
rfoot 8.75651 -8.27742
rtoes -13.4079
lfemur -33.3072 -0.275689 -10.7861
ltibia 30.7235
lfoot 14.9768 5.87518
ltoes -13.0254
434
root 0.757787 20.5093 8.30165 20.3262 -4.54951 -4.4388
lowerback -7.82624 0.765043 4.92078
upperback -5.51047 0.719331 1.38029
thorax -1.2842 0.247042 -1.28614
lowerneck -15.9056 -2.59217 -5.18548
upperneck 27.8911 -2.83913 2.00534
head 11.8912 -1.57761 1.21138
rclavicle -7.67806e-015 -3.86636e-014
rhumerus -44.0542 6.62756 -87.7134
rradius 40.9574
rwrist 5.95377
rhand -22.2516 -47.171
rfingers 7.12502
rthumb 4.16582 -77.11
lclavicle -7.67806e-015 -3.86636e-014
lhumerus -51.6234 -20.9675 91.7992
lradius 45.3216
lwrist 3.66333
lhand -31.5825 -35.1226
lfingers 7.12502
lthumb -4.84556 -5.19799
rfemur -34.3113 4.34852 16.7257
rtibia 33.3807
rfoot 8.61854 -8.35681
rtoes -13.6486
lfemur -33.5718 -0.541356 -9.99527
ltibia 30.779
lfoot 14.9688 5.58329
ltoes -12.5841
435
root 0.757581 20.3282 8.29819 20.3657 -4.43301 -4.71226
lowerback -7.7593 0.777409 5.24406
upperback -5.5037 0.721186 1.51282
thorax -1.31455 0.240863 -1.33021
lowerneck -15.6649 -2.6874 -5.3906
upperneck 27.4678 -2.93436 2.04064
head 11.6866 -1.63541 1.24572
rclavicle -1.35919e-014 8.15017e-015
rhumerus -43.7982 6.71078 -87.6111
rradius 40.8607
rwrist 6.53575
rhand -21.3928 -47.6711
rfingers 7.12502
rthumb 4.99505 -77.5922
lclavicle -1.35919e-014 8.15017e-015
lhumerus -51.6866 -20.7493 91.7892
lradius 45.2175
lwrist 3.39018
lhand -31.4911 -35.4421
lfingers 7.12502
lthumb -4.75739 -5.51552
rfemur -34.2837 4.46698 16.8854
rtibia 33.0759
rfoot 8.59582 -8.50672
rtoes -14.643
lfemur -33.7906 -0.815136 -9.48927
ltibia 31.02
lfoot 14.8189 5.31159
ltoes -12.7627
436
root 0.758789 20.131 8.28594 20.2248 -4.31894 -4.63013
lowerback -7.45957 0.728094 5.24373
upperback -5.50309 0.677021 1.52367
thorax -1.48212 0.215345 -1.32445
lowerneck -15.4512 -2.74974 -5.59331
upperneck 27.0881 -3.00494 2.14983
head 11.5061 -1.67248 1.31073
rclavicle -2.82026e-015 -3.57812e-015
rhumerus -43.8431 7.40035 -88.1737
rradius 40.2354
rwrist 3.05723
rhand -27.8264 -42.4233
rfingers 7.12502
rthumb -1.21827 -72.3996
lclavicle -2.82026e-015 -3.57812e-015
lhumerus -51.8477 -20.4471 91.7207
lradius 45.1965
lwrist 2.97239
lhand -31.8702 -36.4207
lfingers 7.12502
lthumb -5.12343 -6.5026
rfemur -34.1702 4.46164 16.6847
rtibia 32.9015
rfoot 8.50581 -8.81563
rtoes -15.7519
lfemur -33.9346 -1.10664 -9.41532
ltibia 31.4315
lfoot 14.6483 5.04737
ltoes -13.0001
